<?xml version="1.0" standalone="no"?>
<svg xmlns="http://www.w3.org/2000/svg" width="500" height="500"><defs><clipPath id="clip-path-dot-color"><circle cx="26" cy="166" r="7" transform="rotate(0,26,166)"/><circle cx="26" cy="222" r="7" transform="rotate(0,26,222)"/><path d="M 19 243v 14h 7a 7 7, 0, 0, 0, 0 -14" transform="rotate(180,26,250)"/><path d="M 19 285v 14h 7a 7 7, 0, 0, 0, 0 -14" transform="rotate(-90,26,292)"/><rect x="19" y="299" width="14" height="14" transform="rotate(0,26,306)"/><path d="M 19 313v 14h 14v -7a 7 7, 0, 0, 0, -7 -7" transform="rotate(180,26,320)"/><path d="M 19 341v 14h 7a 7 7, 0, 0, 0, 0 -14" transform="rotate(180,26,348)"/><path d="M 33 131v 14h 14v -7a 7 7, 0, 0, 0, -7 -7" transform="rotate(-90,40,138)"/><path d="M 33 145v 14h 14v -7a 7 7, 0, 0, 0, -7 -7" transform="rotate(180,40,152)"/><circle cx="40" cy="208" r="7" transform="rotate(0,40,208)"/><path d="M 33 243v 14h 14v -7a 7 7, 0, 0, 0, -7 -7" transform="rotate(0,40,250)"/><path d="M 33 257v 14h 7a 7 7, 0, 0, 0, 0 -14" transform="rotate(90,40,264)"/><path d="M 33 299v 14h 14v -7a 7 7, 0, 0, 0, -7 -7" transform="rotate(0,40,306)"/><path d="M 33 313v 14h 14v -7a 7 7, 0, 0, 0, -7 -7" transform="rotate(90,40,320)"/><path d="M 33 341v 14h 7a 7 7, 0, 0, 0, 0 -14" transform="rotate(0,40,348)"/><path d="M 47 131v 14h 14v -7a 7 7, 0, 0, 0, -7 -7" transform="rotate(0,54,138)"/><rect x="47" y="145" width="14" height="14" transform="rotate(0,54,152)"/><path d="M 47 159v 14h 14v -7a 7 7, 0, 0, 0, -7 -7" transform="rotate(180,54,166)"/><circle cx="54" cy="222" r="7" transform="rotate(0,54,222)"/><path d="M 47 271v 14h 7a 7 7, 0, 0, 0, 0 -14" transform="rotate(180,54,278)"/><path d="M 47 327v 14h 7a 7 7, 0, 0, 0, 0 -14" transform="rotate(180,54,334)"/><path d="M 47 355v 14h 7a 7 7, 0, 0, 0, 0 -14" transform="rotate(180,54,362)"/><rect x="61" y="159" width="14" height="14" transform="rotate(0,68,166)"/><circle cx="68" cy="250" r="7" transform="rotate(0,68,250)"/><rect x="61" y="271" width="14" height="14" transform="rotate(0,68,278)"/><rect x="61" y="327" width="14" height="14" transform="rotate(0,68,334)"/><rect x="61" y="341" width="14" height="14" transform="rotate(0,68,348)"/><rect x="61" y="355" width="14" height="14" transform="rotate(0,68,362)"/><rect x="75" y="159" width="14" height="14" transform="rotate(0,82,166)"/><circle cx="82" cy="194" r="7" transform="rotate(0,82,194)"/><path d="M 75 215v 14h 7a 7 7, 0, 0, 0, 0 -14" transform="rotate(-90,82,222)"/><path d="M 75 229v 14h 14v -7a 7 7, 0, 0, 0, -7 -7" transform="rotate(180,82,236)"/><path d="M 75 257v 14h 14v -7a 7 7, 0, 0, 0, -7 -7" transform="rotate(-90,82,264)"/><path d="M 75 271v 14h 14v -7a 7 7, 0, 0, 0, -7 -7" transform="rotate(90,82,278)"/><path d="M 75 313v 14h 7a 7 7, 0, 0, 0, 0 -14" transform="rotate(-90,82,320)"/><rect x="75" y="327" width="14" height="14" transform="rotate(0,82,334)"/><rect x="75" y="355" width="14" height="14" transform="rotate(0,82,362)"/><path d="M 89 145v 14h 7a 7 7, 0, 0, 0, 0 -14" transform="rotate(-90,96,152)"/><rect x="89" y="159" width="14" height="14" transform="rotate(0,96,166)"/><path d="M 89 229v 14h 14v -7a 7 7, 0, 0, 0, -7 -7" transform="rotate(0,96,236)"/><rect x="89" y="243" width="14" height="14" transform="rotate(0,96,250)"/><path d="M 89 257v 14h 14v -7a 7 7, 0, 0, 0, -7 -7" transform="rotate(90,96,264)"/><rect x="89" y="327" width="14" height="14" transform="rotate(0,96,334)"/><rect x="89" y="355" width="14" height="14" transform="rotate(0,96,362)"/><circle cx="110" cy="138" r="7" transform="rotate(0,110,138)"/><rect x="103" y="159" width="14" height="14" transform="rotate(0,110,166)"/><path d="M 103 187v 14h 7a 7 7, 0, 0, 0, 0 -14" transform="rotate(180,110,194)"/><path d="M 103 215v 14h 7a 7 7, 0, 0, 0, 0 -14" transform="rotate(180,110,222)"/><path d="M 103 243v 14h 7a 7 7, 0, 0, 0, 0 -14" transform="rotate(0,110,250)"/><circle cx="110" cy="278" r="7" transform="rotate(0,110,278)"/><circle cx="110" cy="306" r="7" transform="rotate(0,110,306)"/><rect x="103" y="327" width="14" height="14" transform="rotate(0,110,334)"/><rect x="103" y="355" width="14" height="14" transform="rotate(0,110,362)"/><path d="M 117 145v 14h 14v -7a 7 7, 0, 0, 0, -7 -7" transform="rotate(-90,124,152)"/><rect x="117" y="159" width="14" height="14" transform="rotate(0,124,166)"/><path d="M 117 187v 14h 7a 7 7, 0, 0, 0, 0 -14" transform="rotate(0,124,194)"/><rect x="117" y="215" width="14" height="14" transform="rotate(0,124,222)"/><path d="M 117 257v 14h 7a 7 7, 0, 0, 0, 0 -14" transform="rotate(180,124,264)"/><circle cx="124" cy="292" r="7" transform="rotate(0,124,292)"/><path d="M 117 327v 14h 7a 7 7, 0, 0, 0, 0 -14" transform="rotate(0,124,334)"/><path d="M 117 355v 14h 7a 7 7, 0, 0, 0, 0 -14" transform="rotate(0,124,362)"/><path d="M 131 33v 14h 7a 7 7, 0, 0, 0, 0 -14" transform="rotate(-90,138,40)"/><rect x="131" y="47" width="14" height="14" transform="rotate(0,138,54)"/><path d="M 131 61v 14h 14v -7a 7 7, 0, 0, 0, -7 -7" transform="rotate(180,138,68)"/><path d="M 131 89v 14h 14v -7a 7 7, 0, 0, 0, -7 -7" transform="rotate(-90,138,96)"/><path d="M 131 103v 14h 7a 7 7, 0, 0, 0, 0 -14" transform="rotate(90,138,110)"/><path d="M 131 145v 14h 14v -7a 7 7, 0, 0, 0, -7 -7" transform="rotate(0,138,152)"/><rect x="131" y="159" width="14" height="14" transform="rotate(0,138,166)"/><path d="M 131 173v 14h 7a 7 7, 0, 0, 0, 0 -14" transform="rotate(90,138,180)"/><path d="M 131 201v 14h 14v -7a 7 7, 0, 0, 0, -7 -7" transform="rotate(-90,138,208)"/><rect x="131" y="215" width="14" height="14" transform="rotate(0,138,222)"/><path d="M 131 229v 14h 14v -7a 7 7, 0, 0, 0, -7 -7" transform="rotate(180,138,236)"/><rect x="131" y="257" width="14" height="14" transform="rotate(0,138,264)"/><path d="M 131 271v 14h 14v -7a 7 7, 0, 0, 0, -7 -7" transform="rotate(180,138,278)"/><path d="M 131 313v 14h 7a 7 7, 0, 0, 0, 0 -14" transform="rotate(180,138,320)"/><path d="M 131 341v 14h 7a 7 7, 0, 0, 0, 0 -14" transform="rotate(180,138,348)"/><path d="M 131 439v 14h 14v -7a 7 7, 0, 0, 0, -7 -7" transform="rotate(-90,138,446)"/><path d="M 131 453v 14h 14v -7a 7 7, 0, 0, 0, -7 -7" transform="rotate(180,138,460)"/><circle cx="152" cy="26" r="7" transform="rotate(0,152,26)"/><rect x="145" y="61" width="14" height="14" transform="rotate(0,152,68)"/><rect x="145" y="75" width="14" height="14" transform="rotate(0,152,82)"/><path d="M 145 89v 14h 14v -7a 7 7, 0, 0, 0, -7 -7" transform="rotate(90,152,96)"/><path d="M 145 117v 14h 7a 7 7, 0, 0, 0, 0 -14" transform="rotate(180,152,124)"/><path d="M 145 187v 14h 7a 7 7, 0, 0, 0, 0 -14" transform="rotate(-90,152,194)"/><rect x="145" y="201" width="14" height="14" transform="rotate(0,152,208)"/><rect x="145" y="215" width="14" height="14" transform="rotate(0,152,222)"/><path d="M 145 229v 14h 14v -7a 7 7, 0, 0, 0, -7 -7" transform="rotate(90,152,236)"/><path d="M 145 257v 14h 14v -7a 7 7, 0, 0, 0, -7 -7" transform="rotate(0,152,264)"/><rect x="145" y="271" width="14" height="14" transform="rotate(0,152,278)"/><rect x="145" y="285" width="14" height="14" transform="rotate(0,152,292)"/><rect x="145" y="299" width="14" height="14" transform="rotate(0,152,306)"/><path d="M 145 313v 14h 14v -7a 7 7, 0, 0, 0, -7 -7" transform="rotate(90,152,320)"/><rect x="145" y="341" width="14" height="14" transform="rotate(0,152,348)"/><path d="M 145 369v 14h 7a 7 7, 0, 0, 0, 0 -14" transform="rotate(-90,152,376)"/><path d="M 145 383v 14h 14v -7a 7 7, 0, 0, 0, -7 -7" transform="rotate(180,152,390)"/><path d="M 145 425v 14h 14v -7a 7 7, 0, 0, 0, -7 -7" transform="rotate(-90,152,432)"/><rect x="145" y="439" width="14" height="14" transform="rotate(0,152,446)"/><rect x="145" y="453" width="14" height="14" transform="rotate(0,152,460)"/><path d="M 145 467v 14h 14v -7a 7 7, 0, 0, 0, -7 -7" transform="rotate(180,152,474)"/><path d="M 159 33v 14h 7a 7 7, 0, 0, 0, 0 -14" transform="rotate(-90,166,40)"/><rect x="159" y="47" width="14" height="14" transform="rotate(0,166,54)"/><rect x="159" y="61" width="14" height="14" transform="rotate(0,166,68)"/><rect x="159" y="75" width="14" height="14" transform="rotate(0,166,82)"/><path d="M 159 103v 14h 7a 7 7, 0, 0, 0, 0 -14" transform="rotate(-90,166,110)"/><path d="M 159 117v 14h 14v -7a 7 7, 0, 0, 0, -7 -7" transform="rotate(90,166,124)"/><circle cx="166" cy="166" r="7" transform="rotate(0,166,166)"/><path d="M 159 215v 14h 7a 7 7, 0, 0, 0, 0 -14" transform="rotate(0,166,222)"/><circle cx="166" cy="250" r="7" transform="rotate(0,166,250)"/><path d="M 159 271v 14h 7a 7 7, 0, 0, 0, 0 -14" transform="rotate(0,166,278)"/><rect x="159" y="299" width="14" height="14" transform="rotate(0,166,306)"/><path d="M 159 327v 14h 7a 7 7, 0, 0, 0, 0 -14" transform="rotate(-90,166,334)"/><rect x="159" y="341" width="14" height="14" transform="rotate(0,166,348)"/><rect x="159" y="383" width="14" height="14" transform="rotate(0,166,390)"/><rect x="159" y="397" width="14" height="14" transform="rotate(0,166,404)"/><rect x="159" y="411" width="14" height="14" transform="rotate(0,166,418)"/><rect x="159" y="425" width="14" height="14" transform="rotate(0,166,432)"/><path d="M 159 453v 14h 14v -7a 7 7, 0, 0, 0, -7 -7" transform="rotate(0,166,460)"/><rect x="159" y="467" width="14" height="14" transform="rotate(0,166,474)"/><path d="M 173 75v 14h 7a 7 7, 0, 0, 0, 0 -14" transform="rotate(0,180,82)"/><path d="M 173 131v 14h 7a 7 7, 0, 0, 0, 0 -14" transform="rotate(180,180,138)"/><path d="M 173 187v 14h 7a 7 7, 0, 0, 0, 0 -14" transform="rotate(180,180,194)"/><circle cx="180" cy="264" r="7" transform="rotate(0,180,264)"/><path d="M 173 299v 14h 7a 7 7, 0, 0, 0, 0 -14" transform="rotate(0,180,306)"/><rect x="173" y="341" width="14" height="14" transform="rotate(0,180,348)"/><path d="M 173 355v 14h 14v -7a 7 7, 0, 0, 0, -7 -7" transform="rotate(180,180,362)"/><path d="M 173 383v 14h 14v -7a 7 7, 0, 0, 0, -7 -7" transform="rotate(0,180,390)"/><path d="M 173 397v 14h 14v -7a 7 7, 0, 0, 0, -7 -7" transform="rotate(90,180,404)"/><rect x="173" y="425" width="14" height="14" transform="rotate(0,180,432)"/><rect x="173" y="467" width="14" height="14" transform="rotate(0,180,474)"/><circle cx="194" cy="26" r="7" transform="rotate(0,194,26)"/><path d="M 187 61v 14h 7a 7 7, 0, 0, 0, 0 -14" transform="rotate(180,194,68)"/><path d="M 187 89v 14h 7a 7 7, 0, 0, 0, 0 -14" transform="rotate(-90,194,96)"/><rect x="187" y="103" width="14" height="14" transform="rotate(0,194,110)"/><rect x="187" y="117" width="14" height="14" transform="rotate(0,194,124)"/><path d="M 187 131v 14h 14v -7a 7 7, 0, 0, 0, -7 -7" transform="rotate(90,194,138)"/><path d="M 187 173v 14h 14v -7a 7 7, 0, 0, 0, -7 -7" transform="rotate(-90,194,180)"/><path d="M 187 187v 14h 14v -7a 7 7, 0, 0, 0, -7 -7" transform="rotate(90,194,194)"/><path d="M 187 215v 14h 14v -7a 7 7, 0, 0, 0, -7 -7" transform="rotate(-90,194,222)"/><path d="M 187 229v 14h 14v -7a 7 7, 0, 0, 0, -7 -7" transform="rotate(180,194,236)"/><circle cx="194" cy="292" r="7" transform="rotate(0,194,292)"/><path d="M 187 327v 14h 14v -7a 7 7, 0, 0, 0, -7 -7" transform="rotate(-90,194,334)"/><rect x="187" y="341" width="14" height="14" transform="rotate(0,194,348)"/><path d="M 187 355v 14h 14v -7a 7 7, 0, 0, 0, -7 -7" transform="rotate(90,194,362)"/><path d="M 187 411v 14h 7a 7 7, 0, 0, 0, 0 -14" transform="rotate(-90,194,418)"/><path d="M 187 425v 14h 14v -7a 7 7, 0, 0, 0, -7 -7" transform="rotate(90,194,432)"/><path d="M 187 467v 14h 7a 7 7, 0, 0, 0, 0 -14" transform="rotate(0,194,474)"/><path d="M 201 33v 14h 7a 7 7, 0, 0, 0, 0 -14" transform="rotate(-90,208,40)"/><rect x="201" y="47" width="14" height="14" transform="rotate(0,208,54)"/><rect x="201" y="61" width="14" height="14" transform="rotate(0,208,68)"/><path d="M 201 75v 14h 7a 7 7, 0, 0, 0, 0 -14" transform="rotate(90,208,82)"/><path d="M 201 117v 14h 7a 7 7, 0, 0, 0, 0 -14" transform="rotate(0,208,124)"/><path d="M 201 145v 14h 14v -7a 7 7, 0, 0, 0, -7 -7" transform="rotate(-90,208,152)"/><rect x="201" y="159" width="14" height="14" transform="rotate(0,208,166)"/><path d="M 201 173v 14h 14v -7a 7 7, 0, 0, 0, -7 -7" transform="rotate(90,208,180)"/><path d="M 201 215v 14h 14v -7a 7 7, 0, 0, 0, -7 -7" transform="rotate(0,208,222)"/><rect x="201" y="229" width="14" height="14" transform="rotate(0,208,236)"/><circle cx="208" cy="306" r="7" transform="rotate(0,208,306)"/><rect x="201" y="327" width="14" height="14" transform="rotate(0,208,334)"/><path d="M 201 369v 14h 7a 7 7, 0, 0, 0, 0 -14" transform="rotate(180,208,376)"/><circle cx="208" cy="460" r="7" transform="rotate(0,208,460)"/><path d="M 215 89v 14h 14v -7a 7 7, 0, 0, 0, -7 -7" transform="rotate(-90,222,96)"/><path d="M 215 103v 14h 7a 7 7, 0, 0, 0, 0 -14" transform="rotate(90,222,110)"/><rect x="215" y="145" width="14" height="14" transform="rotate(0,222,152)"/><path d="M 215 159v 14h 14v -7a 7 7, 0, 0, 0, -7 -7" transform="rotate(90,222,166)"/><circle cx="222" cy="194" r="7" transform="rotate(0,222,194)"/><rect x="215" y="229" width="14" height="14" transform="rotate(0,222,236)"/><path d="M 215 285v 14h 7a 7 7, 0, 0, 0, 0 -14" transform="rotate(180,222,292)"/><path d="M 215 313v 14h 14v -7a 7 7, 0, 0, 0, -7 -7" transform="rotate(-90,222,320)"/><path d="M 215 327v 14h 14v -7a 7 7, 0, 0, 0, -7 -7" transform="rotate(90,222,334)"/><path d="M 215 355v 14h 7a 7 7, 0, 0, 0, 0 -14" transform="rotate(-90,222,362)"/><path d="M 215 369v 14h 14v -7a 7 7, 0, 0, 0, -7 -7" transform="rotate(90,222,376)"/><circle cx="222" cy="432" r="7" transform="rotate(0,222,432)"/><path d="M 229 19v 14h 7a 7 7, 0, 0, 0, 0 -14" transform="rotate(180,236,26)"/><path d="M 229 61v 14h 7a 7 7, 0, 0, 0, 0 -14" transform="rotate(180,236,68)"/><path d="M 229 89v 14h 7a 7 7, 0, 0, 0, 0 -14" transform="rotate(0,236,96)"/><path d="M 229 117v 14h 7a 7 7, 0, 0, 0, 0 -14" transform="rotate(180,236,124)"/><rect x="229" y="145" width="14" height="14" transform="rotate(0,236,152)"/><circle cx="236" cy="180" r="7" transform="rotate(0,236,180)"/><circle cx="236" cy="208" r="7" transform="rotate(0,236,208)"/><path d="M 229 229v 14h 7a 7 7, 0, 0, 0, 0 -14" transform="rotate(0,236,236)"/><path d="M 229 285v 14h 7a 7 7, 0, 0, 0, 0 -14" transform="rotate(0,236,292)"/><rect x="229" y="313" width="14" height="14" transform="rotate(0,236,320)"/><path d="M 229 341v 14h 7a 7 7, 0, 0, 0, 0 -14" transform="rotate(180,236,348)"/><path d="M 229 383v 14h 14v -7a 7 7, 0, 0, 0, -7 -7" transform="rotate(-90,236,390)"/><rect x="229" y="397" width="14" height="14" transform="rotate(0,236,404)"/><path d="M 229 411v 14h 14v -7a 7 7, 0, 0, 0, -7 -7" transform="rotate(180,236,418)"/><path d="M 229 439v 14h 7a 7 7, 0, 0, 0, 0 -14" transform="rotate(180,236,446)"/><path d="M 243 19v 14h 14v -7a 7 7, 0, 0, 0, -7 -7" transform="rotate(0,250,26)"/><path d="M 243 33v 14h 7a 7 7, 0, 0, 0, 0 -14" transform="rotate(90,250,40)"/><path d="M 243 61v 14h 14v -7a 7 7, 0, 0, 0, -7 -7" transform="rotate(0,250,68)"/><path d="M 243 75v 14h 7a 7 7, 0, 0, 0, 0 -14" transform="rotate(90,250,82)"/><path d="M 243 103v 14h 7a 7 7, 0, 0, 0, 0 -14" transform="rotate(-90,250,110)"/><rect x="243" y="117" width="14" height="14" transform="rotate(0,250,124)"/><path d="M 243 145v 14h 7a 7 7, 0, 0, 0, 0 -14" transform="rotate(0,250,152)"/><path d="M 243 187v 14h 7a 7 7, 0, 0, 0, 0 -14" transform="rotate(180,250,194)"/><path d="M 243 215v 14h 7a 7 7, 0, 0, 0, 0 -14" transform="rotate(180,250,222)"/><path d="M 243 299v 14h 7a 7 7, 0, 0, 0, 0 -14" transform="rotate(-90,250,306)"/><rect x="243" y="313" width="14" height="14" transform="rotate(0,250,320)"/><rect x="243" y="327" width="14" height="14" transform="rotate(0,250,334)"/><rect x="243" y="341" width="14" height="14" transform="rotate(0,250,348)"/><path d="M 243 369v 14h 7a 7 7, 0, 0, 0, 0 -14" transform="rotate(-90,250,376)"/><rect x="243" y="383" width="14" height="14" transform="rotate(0,250,390)"/><rect x="243" y="411" width="14" height="14" transform="rotate(0,250,418)"/><rect x="243" y="425" width="14" height="14" transform="rotate(0,250,432)"/><path d="M 243 439v 14h 14v -7a 7 7, 0, 0, 0, -7 -7" transform="rotate(90,250,446)"/><circle cx="264" cy="54" r="7" transform="rotate(0,264,54)"/><rect x="257" y="117" width="14" height="14" transform="rotate(0,264,124)"/><circle cx="264" cy="166" r="7" transform="rotate(0,264,166)"/><path d="M 257 187v 14h 7a 7 7, 0, 0, 0, 0 -14" transform="rotate(0,264,194)"/><path d="M 257 215v 14h 7a 7 7, 0, 0, 0, 0 -14" transform="rotate(0,264,222)"/><circle cx="264" cy="250" r="7" transform="rotate(0,264,250)"/><path d="M 257 341v 14h 7a 7 7, 0, 0, 0, 0 -14" transform="rotate(0,264,348)"/><path d="M 257 383v 14h 7a 7 7, 0, 0, 0, 0 -14" transform="rotate(0,264,390)"/><rect x="257" y="411" width="14" height="14" transform="rotate(0,264,418)"/><path d="M 257 425v 14h 14v -7a 7 7, 0, 0, 0, -7 -7" transform="rotate(90,264,432)"/><path d="M 257 453v 14h 14v -7a 7 7, 0, 0, 0, -7 -7" transform="rotate(-90,264,460)"/><path d="M 257 467v 14h 7a 7 7, 0, 0, 0, 0 -14" transform="rotate(90,264,474)"/><circle cx="278" cy="40" r="7" transform="rotate(0,278,40)"/><path d="M 271 89v 14h 7a 7 7, 0, 0, 0, 0 -14" transform="rotate(-90,278,96)"/><rect x="271" y="103" width="14" height="14" transform="rotate(0,278,110)"/><rect x="271" y="117" width="14" height="14" transform="rotate(0,278,124)"/><path d="M 271 131v 14h 7a 7 7, 0, 0, 0, 0 -14" transform="rotate(90,278,138)"/><circle cx="278" cy="180" r="7" transform="rotate(0,278,180)"/><circle cx="278" cy="236" r="7" transform="rotate(0,278,236)"/><path d="M 271 271v 14h 7a 7 7, 0, 0, 0, 0 -14" transform="rotate(180,278,278)"/><path d="M 271 299v 14h 7a 7 7, 0, 0, 0, 0 -14" transform="rotate(180,278,306)"/><path d="M 271 355v 14h 7a 7 7, 0, 0, 0, 0 -14" transform="rotate(180,278,362)"/><rect x="271" y="411" width="14" height="14" transform="rotate(0,278,418)"/><path d="M 271 439v 14h 7a 7 7, 0, 0, 0, 0 -14" transform="rotate(-90,278,446)"/><rect x="271" y="453" width="14" height="14" transform="rotate(0,278,460)"/><path d="M 285 19v 14h 7a 7 7, 0, 0, 0, 0 -14" transform="rotate(180,292,26)"/><path d="M 285 75v 14h 7a 7 7, 0, 0, 0, 0 -14" transform="rotate(180,292,82)"/><path d="M 285 159v 14h 7a 7 7, 0, 0, 0, 0 -14" transform="rotate(180,292,166)"/><path d="M 285 201v 14h 14v -7a 7 7, 0, 0, 0, -7 -7" transform="rotate(-90,292,208)"/><path d="M 285 215v 14h 7a 7 7, 0, 0, 0, 0 -14" transform="rotate(90,292,222)"/><path d="M 285 243v 14h 7a 7 7, 0, 0, 0, 0 -14" transform="rotate(-90,292,250)"/><rect x="285" y="257" width="14" height="14" transform="rotate(0,292,264)"/><rect x="285" y="271" width="14" height="14" transform="rotate(0,292,278)"/><path d="M 285 299v 14h 7a 7 7, 0, 0, 0, 0 -14" transform="rotate(0,292,306)"/><path d="M 285 327v 14h 7a 7 7, 0, 0, 0, 0 -14" transform="rotate(-90,292,334)"/><rect x="285" y="341" width="14" height="14" transform="rotate(0,292,348)"/><rect x="285" y="355" width="14" height="14" transform="rotate(0,292,362)"/><path d="M 285 397v 14h 14v -7a 7 7, 0, 0, 0, -7 -7" transform="rotate(-90,292,404)"/><path d="M 285 411v 14h 14v -7a 7 7, 0, 0, 0, -7 -7" transform="rotate(90,292,418)"/><rect x="285" y="453" width="14" height="14" transform="rotate(0,292,460)"/><rect x="299" y="19" width="14" height="14" transform="rotate(0,306,26)"/><path d="M 299 47v 14h 14v -7a 7 7, 0, 0, 0, -7 -7" transform="rotate(-90,306,54)"/><rect x="299" y="61" width="14" height="14" transform="rotate(0,306,68)"/><rect x="299" y="75" width="14" height="14" transform="rotate(0,306,82)"/><rect x="299" y="89" width="14" height="14" transform="rotate(0,306,96)"/><rect x="299" y="103" width="14" height="14" transform="rotate(0,306,110)"/><path d="M 299 117v 14h 14v -7a 7 7, 0, 0, 0, -7 -7" transform="rotate(180,306,124)"/><path d="M 299 145v 14h 7a 7 7, 0, 0, 0, 0 -14" transform="rotate(-90,306,152)"/><rect x="299" y="159" width="14" height="14" transform="rotate(0,306,166)"/><rect x="299" y="201" width="14" height="14" transform="rotate(0,306,208)"/><path d="M 299 229v 14h 7a 7 7, 0, 0, 0, 0 -14" transform="rotate(180,306,236)"/><path d="M 299 271v 14h 7a 7 7, 0, 0, 0, 0 -14" transform="rotate(0,306,278)"/><path d="M 299 313v 14h 7a 7 7, 0, 0, 0, 0 -14" transform="rotate(180,306,320)"/><rect x="299" y="355" width="14" height="14" transform="rotate(0,306,362)"/><path d="M 299 369v 14h 14v -7a 7 7, 0, 0, 0, -7 -7" transform="rotate(180,306,376)"/><rect x="299" y="397" width="14" height="14" transform="rotate(0,306,404)"/><path d="M 299 425v 14h 14v -7a 7 7, 0, 0, 0, -7 -7" transform="rotate(-90,306,432)"/><rect x="299" y="439" width="14" height="14" transform="rotate(0,306,446)"/><path d="M 299 453v 14h 14v -7a 7 7, 0, 0, 0, -7 -7" transform="rotate(90,306,460)"/><path d="M 313 19v 14h 14v -7a 7 7, 0, 0, 0, -7 -7" transform="rotate(0,320,26)"/><rect x="313" y="33" width="14" height="14" transform="rotate(0,320,40)"/><rect x="313" y="47" width="14" height="14" transform="rotate(0,320,54)"/><rect x="313" y="61" width="14" height="14" transform="rotate(0,320,68)"/><rect x="313" y="75" width="14" height="14" transform="rotate(0,320,82)"/><path d="M 313 117v 14h 7a 7 7, 0, 0, 0, 0 -14" transform="rotate(0,320,124)"/><path d="M 313 159v 14h 14v -7a 7 7, 0, 0, 0, -7 -7" transform="rotate(0,320,166)"/><rect x="313" y="173" width="14" height="14" transform="rotate(0,320,180)"/><rect x="313" y="187" width="14" height="14" transform="rotate(0,320,194)"/><rect x="313" y="201" width="14" height="14" transform="rotate(0,320,208)"/><rect x="313" y="215" width="14" height="14" transform="rotate(0,320,222)"/><rect x="313" y="229" width="14" height="14" transform="rotate(0,320,236)"/><rect x="313" y="243" width="14" height="14" transform="rotate(0,320,250)"/><path d="M 313 257v 14h 7a 7 7, 0, 0, 0, 0 -14" transform="rotate(90,320,264)"/><path d="M 313 285v 14h 7a 7 7, 0, 0, 0, 0 -14" transform="rotate(-90,320,292)"/><rect x="313" y="299" width="14" height="14" transform="rotate(0,320,306)"/><rect x="313" y="313" width="14" height="14" transform="rotate(0,320,320)"/><rect x="313" y="327" width="14" height="14" transform="rotate(0,320,334)"/><rect x="313" y="341" width="14" height="14" transform="rotate(0,320,348)"/><rect x="313" y="355" width="14" height="14" transform="rotate(0,320,362)"/><rect x="313" y="369" width="14" height="14" transform="rotate(0,320,376)"/><rect x="313" y="383" width="14" height="14" transform="rotate(0,320,390)"/><rect x="313" y="397" width="14" height="14" transform="rotate(0,320,404)"/><rect x="313" y="425" width="14" height="14" transform="rotate(0,320,432)"/><path d="M 313 467v 14h 7a 7 7, 0, 0, 0, 0 -14" transform="rotate(180,320,474)"/><rect x="327" y="75" width="14" height="14" transform="rotate(0,334,82)"/><rect x="327" y="89" width="14" height="14" transform="rotate(0,334,96)"/><path d="M 327 103v 14h 7a 7 7, 0, 0, 0, 0 -14" transform="rotate(90,334,110)"/><circle cx="334" cy="152" r="7" transform="rotate(0,334,152)"/><rect x="327" y="201" width="14" height="14" transform="rotate(0,334,208)"/><path d="M 327 243v 14h 7a 7 7, 0, 0, 0, 0 -14" transform="rotate(0,334,250)"/><circle cx="334" cy="278" r="7" transform="rotate(0,334,278)"/><path d="M 327 313v 14h 7a 7 7, 0, 0, 0, 0 -14" transform="rotate(0,334,320)"/><rect x="327" y="341" width="14" height="14" transform="rotate(0,334,348)"/><rect x="327" y="355" width="14" height="14" transform="rotate(0,334,362)"/><rect x="327" y="369" width="14" height="14" transform="rotate(0,334,376)"/><rect x="327" y="383" width="14" height="14" transform="rotate(0,334,390)"/><path d="M 327 397v 14h 14v -7a 7 7, 0, 0, 0, -7 -7" transform="rotate(90,334,404)"/><rect x="327" y="425" width="14" height="14" transform="rotate(0,334,432)"/><rect x="327" y="439" width="14" height="14" transform="rotate(0,334,446)"/><rect x="327" y="453" width="14" height="14" transform="rotate(0,334,460)"/><rect x="327" y="467" width="14" height="14" transform="rotate(0,334,474)"/><path d="M 341 33v 14h 7a 7 7, 0, 0, 0, 0 -14" transform="rotate(-90,348,40)"/><path d="M 341 47v 14h 14v -7a 7 7, 0, 0, 0, -7 -7" transform="rotate(180,348,54)"/><path d="M 341 75v 14h 14v -7a 7 7, 0, 0, 0, -7 -7" transform="rotate(0,348,82)"/><path d="M 341 89v 14h 14v -7a 7 7, 0, 0, 0, -7 -7" transform="rotate(90,348,96)"/><path d="M 341 187v 14h 7a 7 7, 0, 0, 0, 0 -14" transform="rotate(-90,348,194)"/><rect x="341" y="201" width="14" height="14" transform="rotate(0,348,208)"/><rect x="341" y="215" width="14" height="14" transform="rotate(0,348,222)"/><path d="M 341 229v 14h 14v -7a 7 7, 0, 0, 0, -7 -7" transform="rotate(180,348,236)"/><circle cx="348" cy="264" r="7" transform="rotate(0,348,264)"/><path d="M 341 285v 14h 7a 7 7, 0, 0, 0, 0 -14" transform="rotate(180,348,292)"/><path d="M 341 327v 14h 14v -7a 7 7, 0, 0, 0, -7 -7" transform="rotate(-90,348,334)"/><rect x="341" y="341" width="14" height="14" transform="rotate(0,348,348)"/><rect x="341" y="355" width="14" height="14" transform="rotate(0,348,362)"/><rect x="341" y="369" width="14" height="14" transform="rotate(0,348,376)"/><path d="M 341 411v 14h 14v -7a 7 7, 0, 0, 0, -7 -7" transform="rotate(-90,348,418)"/><path d="M 341 425v 14h 14v -7a 7 7, 0, 0, 0, -7 -7" transform="rotate(90,348,432)"/><rect x="341" y="467" width="14" height="14" transform="rotate(0,348,474)"/><circle cx="362" cy="26" r="7" transform="rotate(0,362,26)"/><path d="M 355 47v 14h 7a 7 7, 0, 0, 0, 0 -14" transform="rotate(0,362,54)"/><circle cx="362" cy="110" r="7" transform="rotate(0,362,110)"/><path d="M 355 131v 14h 7a 7 7, 0, 0, 0, 0 -14" transform="rotate(180,362,138)"/><path d="M 355 173v 14h 7a 7 7, 0, 0, 0, 0 -14" transform="rotate(180,362,180)"/><rect x="355" y="201" width="14" height="14" transform="rotate(0,362,208)"/><rect x="355" y="215" width="14" height="14" transform="rotate(0,362,222)"/><rect x="355" y="229" width="14" height="14" transform="rotate(0,362,236)"/><rect x="355" y="285" width="14" height="14" transform="rotate(0,362,292)"/><path d="M 355 299v 14h 7a 7 7, 0, 0, 0, 0 -14" transform="rotate(90,362,306)"/><path d="M 355 327v 14h 7a 7 7, 0, 0, 0, 0 -14" transform="rotate(0,362,334)"/><rect x="355" y="355" width="14" height="14" transform="rotate(0,362,362)"/><rect x="355" y="369" width="14" height="14" transform="rotate(0,362,376)"/><rect x="355" y="383" width="14" height="14" transform="rotate(0,362,390)"/><rect x="355" y="397" width="14" height="14" transform="rotate(0,362,404)"/><rect x="355" y="411" width="14" height="14" transform="rotate(0,362,418)"/><path d="M 355 467v 14h 7a 7 7, 0, 0, 0, 0 -14" transform="rotate(0,362,474)"/><path d="M 369 131v 14h 7a 7 7, 0, 0, 0, 0 -14" transform="rotate(0,376,138)"/><path d="M 369 159v 14h 7a 7 7, 0, 0, 0, 0 -14" transform="rotate(-90,376,166)"/><rect x="369" y="173" width="14" height="14" transform="rotate(0,376,180)"/><path d="M 369 201v 14h 7a 7 7, 0, 0, 0, 0 -14" transform="rotate(0,376,208)"/><rect x="369" y="229" width="14" height="14" transform="rotate(0,376,236)"/><path d="M 369 257v 14h 14v -7a 7 7, 0, 0, 0, -7 -7" transform="rotate(-90,376,264)"/><rect x="369" y="271" width="14" height="14" transform="rotate(0,376,278)"/><rect x="369" y="285" width="14" height="14" transform="rotate(0,376,292)"/><circle cx="376" cy="320" r="7" transform="rotate(0,376,320)"/><path d="M 369 341v 14h 14v -7a 7 7, 0, 0, 0, -7 -7" transform="rotate(-90,376,348)"/><rect x="369" y="355" width="14" height="14" transform="rotate(0,376,362)"/><rect x="369" y="411" width="14" height="14" transform="rotate(0,376,418)"/><path d="M 369 425v 14h 7a 7 7, 0, 0, 0, 0 -14" transform="rotate(90,376,432)"/><path d="M 383 145v 14h 7a 7 7, 0, 0, 0, 0 -14" transform="rotate(180,390,152)"/><path d="M 383 173v 14h 7a 7 7, 0, 0, 0, 0 -14" transform="rotate(0,390,180)"/><rect x="383" y="229" width="14" height="14" transform="rotate(0,390,236)"/><rect x="383" y="243" width="14" height="14" transform="rotate(0,390,250)"/><rect x="383" y="257" width="14" height="14" transform="rotate(0,390,264)"/><rect x="383" y="271" width="14" height="14" transform="rotate(0,390,278)"/><rect x="383" y="285" width="14" height="14" transform="rotate(0,390,292)"/><path d="M 383 327v 14h 14v -7a 7 7, 0, 0, 0, -7 -7" transform="rotate(-90,390,334)"/><rect x="383" y="341" width="14" height="14" transform="rotate(0,390,348)"/><rect x="383" y="355" width="14" height="14" transform="rotate(0,390,362)"/><circle cx="390" cy="390" r="7" transform="rotate(0,390,390)"/><rect x="383" y="411" width="14" height="14" transform="rotate(0,390,418)"/><path d="M 397 131v 14h 7a 7 7, 0, 0, 0, 0 -14" transform="rotate(-90,404,138)"/><rect x="397" y="145" width="14" height="14" transform="rotate(0,404,152)"/><path d="M 397 159v 14h 7a 7 7, 0, 0, 0, 0 -14" transform="rotate(90,404,166)"/><circle cx="404" cy="208" r="7" transform="rotate(0,404,208)"/><rect x="397" y="229" width="14" height="14" transform="rotate(0,404,236)"/><path d="M 397 257v 14h 7a 7 7, 0, 0, 0, 0 -14" transform="rotate(0,404,264)"/><path d="M 397 285v 14h 7a 7 7, 0, 0, 0, 0 -14" transform="rotate(0,404,292)"/><path d="M 397 313v 14h 14v -7a 7 7, 0, 0, 0, -7 -7" transform="rotate(-90,404,320)"/><rect x="397" y="327" width="14" height="14" transform="rotate(0,404,334)"/><rect x="397" y="341" width="14" height="14" transform="rotate(0,404,348)"/><rect x="397" y="355" width="14" height="14" transform="rotate(0,404,362)"/><rect x="397" y="411" width="14" height="14" transform="rotate(0,404,418)"/><path d="M 397 439v 14h 14v -7a 7 7, 0, 0, 0, -7 -7" transform="rotate(-90,404,446)"/><rect x="397" y="453" width="14" height="14" transform="rotate(0,404,460)"/><path d="M 397 467v 14h 7a 7 7, 0, 0, 0, 0 -14" transform="rotate(90,404,474)"/><path d="M 411 215v 14h 14v -7a 7 7, 0, 0, 0, -7 -7" transform="rotate(-90,418,222)"/><path d="M 411 229v 14h 14v -7a 7 7, 0, 0, 0, -7 -7" transform="rotate(90,418,236)"/><path d="M 411 299v 14h 14v -7a 7 7, 0, 0, 0, -7 -7" transform="rotate(-90,418,306)"/><rect x="411" y="313" width="14" height="14" transform="rotate(0,418,320)"/><rect x="411" y="327" width="14" height="14" transform="rotate(0,418,334)"/><rect x="411" y="341" width="14" height="14" transform="rotate(0,418,348)"/><rect x="411" y="355" width="14" height="14" transform="rotate(0,418,362)"/><rect x="411" y="369" width="14" height="14" transform="rotate(0,418,376)"/><rect x="411" y="383" width="14" height="14" transform="rotate(0,418,390)"/><rect x="411" y="397" width="14" height="14" transform="rotate(0,418,404)"/><path d="M 411 411v 14h 14v -7a 7 7, 0, 0, 0, -7 -7" transform="rotate(90,418,418)"/><path d="M 411 439v 14h 14v -7a 7 7, 0, 0, 0, -7 -7" transform="rotate(0,418,446)"/><rect x="411" y="453" width="14" height="14" transform="rotate(0,418,460)"/><path d="M 425 131v 14h 7a 7 7, 0, 0, 0, 0 -14" transform="rotate(180,432,138)"/><path d="M 425 159v 14h 7a 7 7, 0, 0, 0, 0 -14" transform="rotate(180,432,166)"/><path d="M 425 187v 14h 7a 7 7, 0, 0, 0, 0 -14" transform="rotate(180,432,194)"/><path d="M 425 215v 14h 7a 7 7, 0, 0, 0, 0 -14" transform="rotate(0,432,222)"/><circle cx="432" cy="278" r="7" transform="rotate(0,432,278)"/><path d="M 425 299v 14h 7a 7 7, 0, 0, 0, 0 -14" transform="rotate(0,432,306)"/><path d="M 425 327v 14h 14v -7a 7 7, 0, 0, 0, -7 -7" transform="rotate(0,432,334)"/><rect x="425" y="341" width="14" height="14" transform="rotate(0,432,348)"/><path d="M 425 355v 14h 14v -7a 7 7, 0, 0, 0, -7 -7" transform="rotate(90,432,362)"/><path d="M 425 453v 14h 14v -7a 7 7, 0, 0, 0, -7 -7" transform="rotate(0,432,460)"/><path d="M 425 467v 14h 7a 7 7, 0, 0, 0, 0 -14" transform="rotate(90,432,474)"/><rect x="439" y="131" width="14" height="14" transform="rotate(0,446,138)"/><rect x="439" y="145" width="14" height="14" transform="rotate(0,446,152)"/><rect x="439" y="159" width="14" height="14" transform="rotate(0,446,166)"/><rect x="439" y="173" width="14" height="14" transform="rotate(0,446,180)"/><path d="M 439 187v 14h 14v -7a 7 7, 0, 0, 0, -7 -7" transform="rotate(90,446,194)"/><path d="M 439 229v 14h 7a 7 7, 0, 0, 0, 0 -14" transform="rotate(180,446,236)"/><path d="M 439 257v 14h 7a 7 7, 0, 0, 0, 0 -14" transform="rotate(180,446,264)"/><circle cx="446" cy="320" r="7" transform="rotate(0,446,320)"/><path d="M 439 341v 14h 7a 7 7, 0, 0, 0, 0 -14" transform="rotate(0,446,348)"/><path d="M 439 383v 14h 14v -7a 7 7, 0, 0, 0, -7 -7" transform="rotate(-90,446,390)"/><path d="M 439 397v 14h 7a 7 7, 0, 0, 0, 0 -14" transform="rotate(90,446,404)"/><circle cx="446" cy="432" r="7" transform="rotate(0,446,432)"/><path d="M 453 131v 14h 14v -7a 7 7, 0, 0, 0, -7 -7" transform="rotate(0,460,138)"/><path d="M 453 145v 14h 14v -7a 7 7, 0, 0, 0, -7 -7" transform="rotate(90,460,152)"/><rect x="453" y="173" width="14" height="14" transform="rotate(0,460,180)"/><circle cx="460" cy="208" r="7" transform="rotate(0,460,208)"/><rect x="453" y="229" width="14" height="14" transform="rotate(0,460,236)"/><rect x="453" y="243" width="14" height="14" transform="rotate(0,460,250)"/><rect x="453" y="257" width="14" height="14" transform="rotate(0,460,264)"/><path d="M 453 271v 14h 7a 7 7, 0, 0, 0, 0 -14" transform="rotate(90,460,278)"/><circle cx="460" cy="334" r="7" transform="rotate(0,460,334)"/><path d="M 453 355v 14h 7a 7 7, 0, 0, 0, 0 -14" transform="rotate(-90,460,362)"/><rect x="453" y="369" width="14" height="14" transform="rotate(0,460,376)"/><rect x="453" y="383" width="14" height="14" transform="rotate(0,460,390)"/><circle cx="460" cy="418" r="7" transform="rotate(0,460,418)"/><circle cx="460" cy="474" r="7" transform="rotate(0,460,474)"/><path d="M 467 159v 14h 7a 7 7, 0, 0, 0, 0 -14" transform="rotate(-90,474,166)"/><path d="M 467 173v 14h 14v -7a 7 7, 0, 0, 0, -7 -7" transform="rotate(90,474,180)"/><path d="M 467 229v 14h 14v -7a 7 7, 0, 0, 0, -7 -7" transform="rotate(0,474,236)"/><path d="M 467 243v 14h 14v -7a 7 7, 0, 0, 0, -7 -7" transform="rotate(90,474,250)"/><path d="M 467 299v 14h 7a 7 7, 0, 0, 0, 0 -14" transform="rotate(-90,474,306)"/><path d="M 467 313v 14h 7a 7 7, 0, 0, 0, 0 -14" transform="rotate(90,474,320)"/><path d="M 467 383v 14h 7a 7 7, 0, 0, 0, 0 -14" transform="rotate(0,474,390)"/><circle cx="474" cy="446" r="7" transform="rotate(0,474,446)"/></clipPath><clipPath id="clip-path-corners-square-color-0-0"><path clip-rule="evenodd" d="M 19 54v 28a 35 35, 0, 0, 0, 35 35h 28a 35 35, 0, 0, 0, 35 -35v -28a 35 35, 0, 0, 0, -35 -35h -28a 35 35, 0, 0, 0, -35 35M 54 33h 28a 21 21, 0, 0, 1, 21 21v 28a 21 21, 0, 0, 1, -21 21h -28a 21 21, 0, 0, 1, -21 -21v -28a 21 21, 0, 0, 1, 21 -21" transform="rotate(0,68,68)"/></clipPath><clipPath id="clip-path-corners-dot-color-0-0"><circle cx="68" cy="68" r="21" transform="rotate(0,68,68)"/></clipPath><clipPath id="clip-path-corners-square-color-1-0"><path clip-rule="evenodd" d="M 383 54v 28a 35 35, 0, 0, 0, 35 35h 28a 35 35, 0, 0, 0, 35 -35v -28a 35 35, 0, 0, 0, -35 -35h -28a 35 35, 0, 0, 0, -35 35M 418 33h 28a 21 21, 0, 0, 1, 21 21v 28a 21 21, 0, 0, 1, -21 21h -28a 21 21, 0, 0, 1, -21 -21v -28a 21 21, 0, 0, 1, 21 -21" transform="rotate(90,432,68)"/></clipPath><clipPath id="clip-path-corners-dot-color-1-0"><circle cx="432" cy="68" r="21" transform="rotate(90,432,68)"/></clipPath><clipPath id="clip-path-corners-square-color-0-1"><path clip-rule="evenodd" d="M 19 418v 28a 35 35, 0, 0, 0, 35 35h 28a 35 35, 0, 0, 0, 35 -35v -28a 35 35, 0, 0, 0, -35 -35h -28a 35 35, 0, 0, 0, -35 35M 54 397h 28a 21 21, 0, 0, 1, 21 21v 28a 21 21, 0, 0, 1, -21 21h -28a 21 21, 0, 0, 1, -21 -21v -28a 21 21, 0, 0, 1, 21 -21" transform="rotate(-90,68,432)"/></clipPath><clipPath id="clip-path-corners-dot-color-0-1"><circle cx="68" cy="432" r="21" transform="rotate(-90,68,432)"/></clipPath></defs><rect x="0" y="0" height="500" width="500" clip-path="url('#clip-path-background-color')" fill="#fff"/><rect x="0" y="0" height="500" width="500" clip-path="url('#clip-path-dot-color')" fill="#E83223"/><rect x="19" y="19" height="98" width="98" clip-path="url('#clip-path-corners-square-color-0-0')" fill="#E83223"/><rect x="47" y="47" height="42" width="42" clip-path="url('#clip-path-corners-dot-color-0-0')" fill="#E83223"/><rect x="383" y="19" height="98" width="98" clip-path="url('#clip-path-corners-square-color-1-0')" fill="#E83223"/><rect x="411" y="47" height="42" width="42" clip-path="url('#clip-path-corners-dot-color-1-0')" fill="#E83223"/><rect x="19" y="383" height="98" width="98" clip-path="url('#clip-path-corners-square-color-0-1')" fill="#E83223"/><rect x="47" y="411" height="42" width="42" clip-path="url('#clip-path-corners-dot-color-0-1')" fill="#E83223"/></svg>